version 1
nodes
0 "nw4r_root" -1
1 "char_root" 0
2 "base" 1
3 "j_koshi" 2
4 "j_momo_L" 3
5 "j_hiza_L" 4
6 "j_ashi_L" 5
7 "j_momo_R" 3
8 "j_hiza_R" 7
9 "j_ashi_R" 8
10 "j_sippo_A" 3
11 "j_sippo_B" 10
12 "j_sippo_C" 11
13 "j_mune_A" 2
14 "j_atama" 13
15 "j_ago" 14
16 "j_mimi_L" 14
17 "j_mimi_R" 14
18 "j_kata_L" 13
19 "j_hiji_L" 18
20 "j_te_L" 19
21 "j_kata_R" 13
22 "j_hiji_R" 21
23 "j_te_R" 22
end
skeleton
time 0
0  0.000000 0.000000 0.000000  1.570796 0.000000 -3.141593
1  -0.000000 0.000000 0.000000  -0.000000 0.000000 -0.000000
2  -0.000000 2.707265 -0.000000  -0.000000 0.000000 0.000000
3  -0.000000 0.000000 -0.000000  0.000000 0.000000 -0.000000
4  -0.887625 -0.149235 1.108190  0.000000 1.570786 0.000000
5  -0.163366 -1.100438 0.000000  -0.000000 -0.000000 -0.000010
6  -0.163350 -1.100440 -0.000000  0.000001 -1.570796 0.000000
7  0.887625 -0.149240 1.108185  0.000000 1.570786 0.000000
8  -0.163366 -1.100433 0.000000  -0.000000 -0.000000 -0.000010
9  -0.163355 -1.100440 -0.000000  0.000001 -1.570796 0.000000
10  -0.000000 1.095740 1.671415  -0.000000 0.000000 0.000000
11  -0.000000 1.065840 0.818335  0.000002 0.000000 0.000000
12  -0.000000 1.093821 0.671408  -0.000002 -0.000000 0.000000
13  -0.000000 0.000000 -0.000000  0.000000 0.000000 -0.000000
14  0.000000 0.736745 -1.723459  -0.000000 0.000000 0.000000
15  0.000000 0.572485 -1.008360  -0.000000 0.000000 0.000000
16  -1.342360 0.403425 -0.585596  0.000002 0.000000 0.000000
17  1.342365 0.403425 -0.585600  -0.000002 -3.141592 0.000000
18  -0.981825 -0.229750 -1.626915  0.000000 -1.570796 0.000000
19  -0.000000 -1.062500 -0.000000  0.000000 -0.000000 -0.000000
20  0.000000 -1.062500 -0.000000  0.000000 1.570796 0.000000
21  0.981825 -0.229745 -1.626910  -0.000000 1.570796 0.000000
22  0.000000 -1.062500 0.000000  -0.000000 -3.141592 0.000000
23  0.000001 -1.062505 0.000001  0.000000 1.570796 0.000000
end
triangles
Leo2A
0  -0.355984 -4.207440 3.784435  -0.489949 -0.863861 -0.117021  0.390625 0.636719 1 14 1.000000
0  -0.357514 -4.193555 3.834025  -0.472862 -0.878204 0.071827  0.390625 0.625000 1 14 1.000000
0  -0.427854 -4.146100 3.727825  -0.333334 -0.812602 -0.478086  0.386719 0.640625 1 14 1.000000
Leo2A
0  -0.280609 -4.232160 3.835400  -0.357011 -0.930966 0.076452  0.406250 0.621094 1 14 1.000000
0  -0.357514 -4.193555 3.834025  -0.472862 -0.878204 0.071827  0.390625 0.625000 1 14 1.000000
0  -0.355984 -4.207440 3.784435  -0.489949 -0.863861 -0.117021  0.390625 0.636719 1 14 1.000000
Leo2A
0  -0.280609 -4.232160 3.835400  -0.357011 -0.930966 0.076452  0.406250 0.621094 1 14 1.000000
0  -0.355984 -4.207440 3.784435  -0.489949 -0.863861 -0.117021  0.390625 0.636719 1 14 1.000000
0  -0.287779 -4.228345 3.778485  -0.286316 -0.930316 -0.229206  0.406250 0.636719 1 14 1.000000
Leo2A
0  -0.287779 -4.228345 3.778485  -0.286316 -0.930316 -0.229206  0.406250 0.636719 1 14 1.000000
0  -0.355984 -4.207440 3.784435  -0.489949 -0.863861 -0.117021  0.390625 0.636719 1 14 1.000000
0  -0.427854 -4.146100 3.727825  -0.333334 -0.812602 -0.478086  0.386719 0.640625 1 14 1.000000
Leo2A
0  -0.427854 -4.146100 3.727825  -0.333334 -0.812602 -0.478086  0.386719 0.640625 1 14 1.000000
0  -0.366974 -4.136795 3.704325  -0.159529 -0.704008 -0.692042  0.398438 0.648438 1 14 1.000000
0  -0.287779 -4.228345 3.778485  -0.286316 -0.930316 -0.229206  0.406250 0.636719 1 14 1.000000
Leo2A
0  -0.514829 -4.042800 3.641310  -0.358195 -0.702289 -0.615213  0.386719 0.656250 1 14 1.000000
0  -0.366974 -4.136795 3.704325  -0.159529 -0.704008 -0.692042  0.398438 0.648438 1 14 1.000000
0  -0.427854 -4.146100 3.727825  -0.333334 -0.812602 -0.478086  0.386719 0.640625 1 14 1.000000
Leo2A
0  -0.569764 -4.099410 3.843180  -0.519254 -0.801829 -0.295713  0.375000 0.628906 1 14 1.000000
0  -0.704039 -3.936750 3.667095  -0.592587 -0.597273 -0.540468  0.363281 0.648438 1 14 1.000000
0  -0.551604 -4.052870 3.677015  -0.474753 -0.748029 -0.463748  0.378906 0.648438 1 14 1.000000
Leo2A
0  -0.719449 -4.013500 3.869580  -0.582716 -0.744229 -0.326442  0.367188 0.632812 1 14 1.000000
0  -0.704039 -3.936750 3.667095  -0.592587 -0.597273 -0.540468  0.363281 0.648438 1 14 1.000000
0  -0.569764 -4.099410 3.843180  -0.519254 -0.801829 -0.295713  0.375000 0.628906 1 14 1.000000
Leo2A
0  -0.828549 -3.921795 3.892315  -0.743060 -0.588733 -0.318205  0.355469 0.636719 1 14 1.000000
0  -0.704039 -3.936750 3.667095  -0.592587 -0.597273 -0.540468  0.363281 0.648438 1 14 1.000000
0  -0.719449 -4.013500 3.869580  -0.582716 -0.744229 -0.326442  0.367188 0.632812 1 14 1.000000
Leo2A
0  -0.818174 -3.835890 3.721720  -0.761756 -0.341509 -0.550544  0.355469 0.648438 1 14 1.000000
0  -0.704039 -3.936750 3.667095  -0.592587 -0.597273 -0.540468  0.363281 0.648438 1 14 1.000000
0  -0.828549 -3.921795 3.892315  -0.743060 -0.588733 -0.318205  0.355469 0.636719 1 14 1.000000
Leo2A
0  -0.928344 -3.800030 3.954570  -0.930637 -0.207150 -0.301667  0.343750 0.636719 1 14 1.000000
0  -0.818174 -3.835890 3.721720  -0.761756 -0.341509 -0.550544  0.355469 0.648438 1 14 1.000000
0  -0.828549 -3.921795 3.892315  -0.743060 -0.588733 -0.318205  0.355469 0.636719 1 14 1.000000
Leo2A
0  -0.887754 -3.785690 3.818155  -0.873027 -0.305518 -0.380109  0.347656 0.644531 1 14 1.000000
0  -0.818174 -3.835890 3.721720  -0.761756 -0.341509 -0.550544  0.355469 0.648438 1 14 1.000000
0  -0.928344 -3.800030 3.954570  -0.930637 -0.207150 -0.301667  0.343750 0.636719 1 14 1.000000
Leo2A
0  -0.939789 -3.726330 3.987835  -0.959992 -0.059098 -0.273721  0.324219 0.640625 1 14 1.000000
0  -0.887754 -3.785690 3.818155  -0.873027 -0.305518 -0.380109  0.347656 0.644531 1 14 1.000000
0  -0.928344 -3.800030 3.954570  -0.930637 -0.207150 -0.301667  0.343750 0.636719 1 14 1.000000
Leo2A
0  -0.895539 -3.720685 3.809155  -0.897936 -0.164081 -0.408396  0.335938 0.652344 1 14 1.000000
0  -0.887754 -3.785690 3.818155  -0.873027 -0.305518 -0.380109  0.347656 0.644531 1 14 1.000000
0  -0.939789 -3.726330 3.987835  -0.959992 -0.059098 -0.273721  0.324219 0.640625 1 14 1.000000
Leo2A
0  -0.802609 -3.763715 3.692730  -0.733835 -0.129603 -0.666850  0.347656 0.660156 1 14 1.000000
0  -0.887754 -3.785690 3.818155  -0.873027 -0.305518 -0.380109  0.347656 0.644531 1 14 1.000000
0  -0.895539 -3.720685 3.809155  -0.897936 -0.164081 -0.408396  0.335938 0.652344 1 14 1.000000
Leo2A
0  -0.818174 -3.835890 3.721720  -0.761756 -0.341509 -0.550544  0.355469 0.648438 1 14 1.000000
0  -0.887754 -3.785690 3.818155  -0.873027 -0.305518 -0.380109  0.347656 0.644531 1 14 1.000000
0  -0.802609 -3.763715 3.692730  -0.733835 -0.129603 -0.666850  0.347656 0.660156 1 14 1.000000
Leo2A
0  -0.681304 -3.907910 3.630320  -0.532517 -0.449593 -0.717141  0.367188 0.660156 1 14 1.000000
0  -0.818174 -3.835890 3.721720  -0.761756 -0.341509 -0.550544  0.355469 0.648438 1 14 1.000000
0  -0.802609 -3.763715 3.692730  -0.733835 -0.129603 -0.666850  0.347656 0.660156 1 14 1.000000
Leo2A
0  -0.704039 -3.936750 3.667095  -0.592587 -0.597273 -0.540468  0.363281 0.648438 1 14 1.000000
0  -0.818174 -3.835890 3.721720  -0.761756 -0.341509 -0.550544  0.355469 0.648438 1 14 1.000000
0  -0.681304 -3.907910 3.630320  -0.532517 -0.449593 -0.717141  0.367188 0.660156 1 14 1.000000
Leo2A
0  -0.514829 -4.042800 3.641310  -0.358195 -0.702289 -0.615213  0.386719 0.656250 1 14 1.000000
0  -0.704039 -3.936750 3.667095  -0.592587 -0.597273 -0.540468  0.363281 0.648438 1 14 1.000000
0  -0.681304 -3.907910 3.630320  -0.532517 -0.449593 -0.717141  0.367188 0.660156 1 14 1.000000
Leo2A
0  -0.704039 -3.936750 3.667095  -0.592587 -0.597273 -0.540468  0.363281 0.648438 1 14 1.000000
0  -0.514829 -4.042800 3.641310  -0.358195 -0.702289 -0.615213  0.386719 0.656250 1 14 1.000000
0  -0.551604 -4.052870 3.677015  -0.474753 -0.748029 -0.463748  0.378906 0.648438 1 14 1.000000
Leo2A
0  -0.551604 -4.052870 3.677015  -0.474753 -0.748029 -0.463748  0.378906 0.648438 1 14 1.000000
0  -0.514829 -4.042800 3.641310  -0.358195 -0.702289 -0.615213  0.386719 0.656250 1 14 1.000000
0  -0.427854 -4.146100 3.727825  -0.333334 -0.812602 -0.478086  0.386719 0.640625 1 14 1.000000
Leo2A
0  -0.551604 -4.052870 3.677015  -0.474753 -0.748029 -0.463748  0.378906 0.648438 1 14 1.000000
0  -0.427854 -4.146100 3.727825  -0.333334 -0.812602 -0.478086  0.386719 0.640625 1 14 1.000000
0  -0.569764 -4.099410 3.843180  -0.519254 -0.801829 -0.295713  0.375000 0.628906 1 14 1.000000
Leo2A
0  -0.569764 -4.099410 3.843180  -0.519254 -0.801829 -0.295713  0.375000 0.628906 1 14 1.000000
0  -0.427854 -4.146100 3.727825  -0.333334 -0.812602 -0.478086  0.386719 0.640625 1 14 1.000000
0  -0.439759 -4.173720 3.833875  -0.365752 -0.889831 -0.272812  0.382812 0.628906 1 14 1.000000
Leo2A
0  -0.427854 -4.146100 3.727825  -0.333334 -0.812602 -0.478086  0.386719 0.640625 1 14 1.000000
0  -0.357514 -4.193555 3.834025  -0.472862 -0.878204 0.071827  0.390625 0.625000 1 14 1.000000
0  -0.439759 -4.173720 3.833875  -0.365752 -0.889831 -0.272812  0.382812 0.628906 1 14 1.000000
Leo2A
0  0.355986 -4.207440 3.784435  0.489949 -0.863862 -0.117019  0.390625 0.636719 1 14 1.000000
0  0.287781 -4.228345 3.778485  0.286316 -0.930317 -0.229204  0.406250 0.636719 1 14 1.000000
0  0.427856 -4.146100 3.727825  0.333334 -0.812603 -0.478085  0.386719 0.640625 1 14 1.000000
Leo2A
0  0.280611 -4.232160 3.835400  0.357010 -0.930967 0.076451  0.406250 0.621094 1 14 1.000000
0  0.287781 -4.228345 3.778485  0.286316 -0.930317 -0.229204  0.406250 0.636719 1 14 1.000000
0  0.355986 -4.207440 3.784435  0.489949 -0.863862 -0.117019  0.390625 0.636719 1 14 1.000000
Leo2A
0  0.357516 -4.193555 3.834025  0.472862 -0.878205 0.071824  0.390625 0.625000 1 14 1.000000
0  0.280611 -4.232160 3.835400  0.357010 -0.930967 0.076451  0.406250 0.621094 1 14 1.000000
0  0.355986 -4.207440 3.784435  0.489949 -0.863862 -0.117019  0.390625 0.636719 1 14 1.000000
Leo2A
0  0.427856 -4.146100 3.727825  0.333334 -0.812603 -0.478085  0.386719 0.640625 1 14 1.000000
0  0.357516 -4.193555 3.834025  0.472862 -0.878205 0.071824  0.390625 0.625000 1 14 1.000000
0  0.355986 -4.207440 3.784435  0.489949 -0.863862 -0.117019  0.390625 0.636719 1 14 1.000000
Leo2A
0  0.439761 -4.173720 3.833875  0.365753 -0.889831 -0.272811  0.382812 0.628906 1 14 1.000000
0  0.357516 -4.193555 3.834025  0.472862 -0.878205 0.071824  0.390625 0.625000 1 14 1.000000
0  0.427856 -4.146100 3.727825  0.333334 -0.812603 -0.478085  0.386719 0.640625 1 14 1.000000
Leo2A
0  0.427856 -4.146100 3.727825  0.333334 -0.812603 -0.478085  0.386719 0.640625 1 14 1.000000
0  0.569766 -4.099410 3.843180  0.519254 -0.801829 -0.295712  0.375000 0.628906 1 14 1.000000
0  0.439761 -4.173720 3.833875  0.365753 -0.889831 -0.272811  0.382812 0.628906 1 14 1.000000
Leo2A
0  0.704041 -3.936750 3.667095  0.592587 -0.597273 -0.540467  0.363281 0.648438 1 14 1.000000
0  0.551606 -4.052870 3.677015  0.474752 -0.748029 -0.463749  0.378906 0.648438 1 14 1.000000
0  0.514831 -4.042800 3.641310  0.358194 -0.702287 -0.615215  0.386719 0.656250 1 14 1.000000
Leo2A
0  0.681306 -3.907910 3.630320  0.532517 -0.449593 -0.717141  0.367188 0.660156 1 14 1.000000
0  0.704041 -3.936750 3.667095  0.592587 -0.597273 -0.540467  0.363281 0.648438 1 14 1.000000
0  0.514831 -4.042800 3.641310  0.358194 -0.702287 -0.615215  0.386719 0.656250 1 14 1.000000
Leo2A
0  0.818176 -3.835890 3.721720  0.761755 -0.341509 -0.550545  0.355469 0.648438 1 14 1.000000
0  0.704041 -3.936750 3.667095  0.592587 -0.597273 -0.540467  0.363281 0.648438 1 14 1.000000
0  0.681306 -3.907910 3.630320  0.532517 -0.449593 -0.717141  0.367188 0.660156 1 14 1.000000
Leo2A
0  0.802611 -3.763715 3.692730  0.733833 -0.129603 -0.666852  0.347656 0.660156 1 14 1.000000
0  0.818176 -3.835890 3.721720  0.761755 -0.341509 -0.550545  0.355469 0.648438 1 14 1.000000
0  0.681306 -3.907910 3.630320  0.532517 -0.449593 -0.717141  0.367188 0.660156 1 14 1.000000
Leo2A
0  0.887756 -3.785690 3.818155  0.873027 -0.305516 -0.380109  0.347656 0.644531 1 14 1.000000
0  0.818176 -3.835890 3.721720  0.761755 -0.341509 -0.550545  0.355469 0.648438 1 14 1.000000
0  0.802611 -3.763715 3.692730  0.733833 -0.129603 -0.666852  0.347656 0.660156 1 14 1.000000
Leo2A
0  0.895541 -3.720685 3.809155  0.897937 -0.164079 -0.408395  0.335938 0.652344 1 14 1.000000
0  0.887756 -3.785690 3.818155  0.873027 -0.305516 -0.380109  0.347656 0.644531 1 14 1.000000
0  0.802611 -3.763715 3.692730  0.733833 -0.129603 -0.666852  0.347656 0.660156 1 14 1.000000
Leo2A
0  0.939791 -3.726330 3.987835  0.959991 -0.059095 -0.273723  0.324219 0.640625 1 14 1.000000
0  0.887756 -3.785690 3.818155  0.873027 -0.305516 -0.380109  0.347656 0.644531 1 14 1.000000
0  0.895541 -3.720685 3.809155  0.897937 -0.164079 -0.408395  0.335938 0.652344 1 14 1.000000
Leo2A
0  0.928346 -3.800030 3.954570  0.930637 -0.207148 -0.301669  0.343750 0.636719 1 14 1.000000
0  0.887756 -3.785690 3.818155  0.873027 -0.305516 -0.380109  0.347656 0.644531 1 14 1.000000
0  0.939791 -3.726330 3.987835  0.959991 -0.059095 -0.273723  0.324219 0.640625 1 14 1.000000
Leo2A
0  0.887756 -3.785690 3.818155  0.873027 -0.305516 -0.380109  0.347656 0.644531 1 14 1.000000
0  0.928346 -3.800030 3.954570  0.930637 -0.207148 -0.301669  0.343750 0.636719 1 14 1.000000
0  0.818176 -3.835890 3.721720  0.761755 -0.341509 -0.550545  0.355469 0.648438 1 14 1.000000
Leo2A
0  0.818176 -3.835890 3.721720  0.761755 -0.341509 -0.550545  0.355469 0.648438 1 14 1.000000
0  0.928346 -3.800030 3.954570  0.930637 -0.207148 -0.301669  0.343750 0.636719 1 14 1.000000
0  0.828551 -3.921795 3.892315  0.743061 -0.588732 -0.318207  0.355469 0.636719 1 14 1.000000
Leo2A
0  0.704041 -3.936750 3.667095  0.592587 -0.597273 -0.540467  0.363281 0.648438 1 14 1.000000
0  0.818176 -3.835890 3.721720  0.761755 -0.341509 -0.550545  0.355469 0.648438 1 14 1.000000
0  0.828551 -3.921795 3.892315  0.743061 -0.588732 -0.318207  0.355469 0.636719 1 14 1.000000
Leo2A
0  0.828551 -3.921795 3.892315  0.743061 -0.588732 -0.318207  0.355469 0.636719 1 14 1.000000
0  0.719451 -4.013500 3.869580  0.582717 -0.744228 -0.326444  0.367188 0.632812 1 14 1.000000
0  0.704041 -3.936750 3.667095  0.592587 -0.597273 -0.540467  0.363281 0.648438 1 14 1.000000
Leo2A
0  0.719451 -4.013500 3.869580  0.582717 -0.744228 -0.326444  0.367188 0.632812 1 14 1.000000
0  0.569766 -4.099410 3.843180  0.519254 -0.801829 -0.295712  0.375000 0.628906 1 14 1.000000
0  0.704041 -3.936750 3.667095  0.592587 -0.597273 -0.540467  0.363281 0.648438 1 14 1.000000
Leo2A
0  0.704041 -3.936750 3.667095  0.592587 -0.597273 -0.540467  0.363281 0.648438 1 14 1.000000
0  0.569766 -4.099410 3.843180  0.519254 -0.801829 -0.295712  0.375000 0.628906 1 14 1.000000
0  0.551606 -4.052870 3.677015  0.474752 -0.748029 -0.463749  0.378906 0.648438 1 14 1.000000
Leo2A
0  0.551606 -4.052870 3.677015  0.474752 -0.748029 -0.463749  0.378906 0.648438 1 14 1.000000
0  0.569766 -4.099410 3.843180  0.519254 -0.801829 -0.295712  0.375000 0.628906 1 14 1.000000
0  0.427856 -4.146100 3.727825  0.333334 -0.812603 -0.478085  0.386719 0.640625 1 14 1.000000
Leo2A
0  0.514831 -4.042800 3.641310  0.358194 -0.702287 -0.615215  0.386719 0.656250 1 14 1.000000
0  0.551606 -4.052870 3.677015  0.474752 -0.748029 -0.463749  0.378906 0.648438 1 14 1.000000
0  0.427856 -4.146100 3.727825  0.333334 -0.812603 -0.478085  0.386719 0.640625 1 14 1.000000
Leo2A
0  0.427856 -4.146100 3.727825  0.333334 -0.812603 -0.478085  0.386719 0.640625 1 14 1.000000
0  0.366976 -4.136795 3.704325  0.159528 -0.704009 -0.692042  0.398438 0.648438 1 14 1.000000
0  0.514831 -4.042800 3.641310  0.358194 -0.702287 -0.615215  0.386719 0.656250 1 14 1.000000
Leo2A
0  0.287781 -4.228345 3.778485  0.286316 -0.930317 -0.229204  0.406250 0.636719 1 14 1.000000
0  0.366976 -4.136795 3.704325  0.159528 -0.704009 -0.692042  0.398438 0.648438 1 14 1.000000
0  0.427856 -4.146100 3.727825  0.333334 -0.812603 -0.478085  0.386719 0.640625 1 14 1.000000
end
